<svg xmlns="http://www.w3.org/2000/svg" width="1280" height="1280" viewBox="0 0 1280 1280" font-family="Helvetica, Arial, sans-serif">
  <rect x="0" y="0" width="1280" height="1280" fill="#ffffff"/>

  <!-- title -->
  <text x="40" y="48" font-size="27" font-weight="bold" fill="#232F3E">AWS Serverless Pagila — PostgreSQL Training Environment</text>
  <text x="40" y="74" font-size="15" fill="#5A6B7B">Aurora Serverless v2 (private) · Lambda in VPC · API Gateway — web-only, region us-east-1</text>

  <!-- AWS Cloud -->
  <rect x="200" y="100" width="1044" height="720" rx="10" fill="none" stroke="#232F3E" stroke-width="2"/>
  <text x="220" y="128" font-size="14" font-weight="bold" fill="#232F3E">AWS Cloud</text>
  <text x="220" y="146" font-size="11" fill="#5A6B7B">us-east-1</text>

  <!-- VPC -->
  <rect x="440" y="160" width="782" height="540" rx="8" fill="#F7F2FF" stroke="#8C4FFF" stroke-width="2"/>
  <text x="458" y="184" font-size="13" font-weight="bold" fill="#8C4FFF">VPC · 10.0.0.0/16 · private · no NAT</text>

  <!-- Private subnet AZ-a -->
  <rect x="466" y="220" width="360" height="300" rx="6" fill="#F0F7FB" stroke="#147EBA" stroke-width="1.5"/>
  <text x="480" y="241" font-size="11" font-weight="bold" fill="#10688F">Private subnet · AZ-a · 10.0.1.0/24</text>

  <!-- Private subnet AZ-b -->
  <rect x="846" y="220" width="360" height="300" rx="6" fill="#F0F7FB" stroke="#147EBA" stroke-width="1.5"/>
  <text x="860" y="241" font-size="11" font-weight="bold" fill="#10688F">Private subnet · AZ-b · 10.0.2.0/24</text>

  <!-- ===================== EDGES (under icons) ===================== -->
  <!-- 1 Developer -> API GW -->
  <line x1="178" y1="408" x2="246" y2="404" stroke="#2E5B88" stroke-width="2.2" marker-end="url(#arrow)"/>
  <!-- 2 API GW -> Lambda -->
  <line x1="298" y1="402" x2="563" y2="308" stroke="#2E5B88" stroke-width="2.2" marker-end="url(#arrow)"/>
  <!-- 4 Lambda -> Aurora -->
  <line x1="614" y1="298" x2="983" y2="314" stroke="#2E5B88" stroke-width="2.2" marker-end="url(#arrow)"/>
  <!-- 5 rows Aurora -> Lambda (dashed) -->
  <line x1="983" y1="332" x2="614" y2="320" stroke="#9AA7B4" stroke-width="1.6" stroke-dasharray="5 4" marker-end="url(#arrowg)"/>
  <!-- 3a Lambda -> Endpoint -->
  <line x1="589" y1="328" x2="589" y2="408" stroke="#2E5B88" stroke-width="2.2" marker-end="url(#arrow)"/>
  <!-- 3b Endpoint -> Secrets Manager -->
  <line x1="610" y1="452" x2="740" y2="703" stroke="#2E5B88" stroke-width="2.2" marker-end="url(#arrow)"/>

  <!-- ===================== ICONS ===================== -->

  <!-- Developer -->
  <rect x="36" y="360" width="140" height="124" rx="8" fill="#FFFFFF" stroke="#9AA7B4" stroke-width="1.4"/>
  <g>
    <rect x="83" y="378" width="46" height="46" rx="8" fill="#232F3E"/>
    <circle cx="106" cy="394" r="7" fill="#ffffff"/>
    <path d="M92 416 q14 -16 28 0 z" fill="#ffffff"/>
  </g>
  <text x="106" y="448" font-size="13" font-weight="bold" fill="#232F3E" text-anchor="middle">Developer</text>
  <text x="106" y="465" font-size="11" fill="#5A6B7B" text-anchor="middle">HTTPS client</text>

  <!-- API Gateway -->
  <g>
    <rect x="250" y="380" width="46" height="46" rx="8" fill="#8C4FFF"/>
    <text x="273" y="409" font-size="13" font-weight="bold" fill="#ffffff" text-anchor="middle">API</text>
  </g>
  <text x="273" y="446" font-size="12" font-weight="bold" fill="#232F3E" text-anchor="middle">API Gateway</text>
  <text x="273" y="461" font-size="10" fill="#5A6B7B" text-anchor="middle">REST · POST /query</text>

  <!-- Lambda -->
  <g>
    <rect x="566" y="282" width="46" height="46" rx="8" fill="#ED7100"/>
    <text x="589" y="314" font-size="26" font-weight="bold" fill="#ffffff" text-anchor="middle" font-family="Georgia, serif">&#955;</text>
  </g>
  <text x="589" y="348" font-size="12" font-weight="bold" fill="#232F3E" text-anchor="middle">AWS Lambda</text>
  <text x="589" y="363" font-size="10" fill="#5A6B7B" text-anchor="middle">query-handler · Node 20</text>

  <!-- Interface Endpoint -->
  <g>
    <rect x="566" y="410" width="46" height="46" rx="8" fill="#8C4FFF"/>
    <text x="589" y="438" font-size="11" font-weight="bold" fill="#ffffff" text-anchor="middle">VPCe</text>
  </g>
  <text x="589" y="476" font-size="12" font-weight="bold" fill="#232F3E" text-anchor="middle">Interface Endpoint</text>
  <text x="589" y="491" font-size="10" fill="#5A6B7B" text-anchor="middle">Secrets Manager (HTTPS)</text>

  <!-- Aurora -->
  <g>
    <rect x="986" y="300" width="46" height="46" rx="8" fill="#2E73B8"/>
    <ellipse cx="1009" cy="315" rx="12" ry="4" fill="#ffffff"/>
    <rect x="997" y="315" width="24" height="16" fill="#ffffff"/>
    <ellipse cx="1009" cy="331" rx="12" ry="4" fill="#ffffff"/>
    <ellipse cx="1009" cy="323" rx="12" ry="4" fill="none" stroke="#2E73B8" stroke-width="1"/>
  </g>
  <text x="1009" y="366" font-size="12" font-weight="bold" fill="#232F3E" text-anchor="middle">Aurora PostgreSQL</text>
  <text x="1009" y="381" font-size="10" fill="#5A6B7B" text-anchor="middle">Serverless v2 · private</text>
  <text x="1009" y="395" font-size="10" fill="#147E84" text-anchor="middle">auto-pause at 0 ACU</text>

  <!-- Secrets Manager (service, outside VPC) -->
  <g>
    <rect x="720" y="706" width="46" height="46" rx="8" fill="#DD344C"/>
    <path d="M736 726 a7 7 0 0 1 14 0" fill="none" stroke="#ffffff" stroke-width="2.4"/>
    <rect x="734" y="725" width="18" height="15" rx="2" fill="#ffffff"/>
    <circle cx="743" cy="732" r="2" fill="#DD344C"/>
  </g>
  <text x="743" y="766" font-size="12" font-weight="bold" fill="#232F3E" text-anchor="middle">Secrets Manager</text>
  <text x="743" y="781" font-size="10" fill="#5A6B7B" text-anchor="middle">DB credentials</text>

  <!-- ===================== STEP BADGES ===================== -->
  <g font-size="13" font-weight="bold" fill="#ffffff" text-anchor="middle">
    <circle cx="212" cy="388" r="13" fill="#00A4A6"/><text x="212" y="393">1</text>
    <circle cx="438" cy="349" r="13" fill="#00A4A6"/><text x="438" y="354">2</text>
    <circle cx="606" cy="360" r="13" fill="#00A4A6"/><text x="606" y="365">3</text>
    <circle cx="800" cy="288" r="13" fill="#00A4A6"/><text x="800" y="293">4</text>
    <circle cx="800" cy="344" r="13" fill="#9AA7B4"/><text x="800" y="349">5</text>
  </g>
  <text x="800" y="318" font-size="10" fill="#5A6B7B" text-anchor="middle">SQL :5432</text>
  <text x="690" y="560" font-size="10" fill="#5A6B7B" text-anchor="middle" transform="rotate(62 690 560)">get credentials</text>

  <!-- ===================== LEGEND ===================== -->
  <rect x="36" y="524" width="210" height="250" rx="8" fill="#FAFAFA" stroke="#D6DBE0" stroke-width="1.2"/>
  <text x="48" y="548" font-size="13" font-weight="bold" fill="#232F3E">Request flow</text>
  <g font-size="11" fill="#39485A">
    <text x="48" y="572">1 · POST /query (HTTPS)</text>
    <text x="48" y="594">2 · Invoke Lambda (in VPC)</text>
    <text x="48" y="616">3 · Read secret via endpoint</text>
    <text x="48" y="638">4 · Run SQL on Aurora</text>
    <text x="48" y="660">5 · Return rows (JSON)</text>
  </g>
  <line x1="48" y1="676" x2="234" y2="676" stroke="#E0E4E8" stroke-width="1"/>
  <text x="48" y="696" font-size="10" fill="#10688F" font-weight="bold">Web-only: Aurora is private</text>
  <text x="48" y="712" font-size="10" fill="#5A6B7B">(no direct psql from a laptop)</text>
  <text x="48" y="734" font-size="10" fill="#5A6B7B">No NAT · 1 interface endpoint</text>
  <text x="48" y="754" font-size="10" fill="#147E84">Aurora auto-pauses when idle</text>

  <defs>
    <marker id="arrow" markerWidth="10" markerHeight="10" refX="8" refY="3" orient="auto" markerUnits="strokeWidth">
      <path d="M0,0 L8,3 L0,6 z" fill="#2E5B88"/>
    </marker>
    <marker id="arrowg" markerWidth="10" markerHeight="10" refX="8" refY="3" orient="auto" markerUnits="strokeWidth">
      <path d="M0,0 L8,3 L0,6 z" fill="#9AA7B4"/>
    </marker>
  </defs>
</svg>
